<?xml version="1.0" encoding="UTF-8" standalone="no"?>
<!DOCTYPE svg PUBLIC "-//W3C//DTD SVG 1.1//EN" "http://www.w3.org/Graphics/SVG/1.1/DTD/svg11.dtd">
<svg width="100%" height="100%" viewBox="0 0 655 252" version="1.1" xmlns="http://www.w3.org/2000/svg" xmlns:xlink="http://www.w3.org/1999/xlink" xml:space="preserve" xmlns:serif="http://www.serif.com/" style="fill-rule:evenodd;clip-rule:evenodd;stroke-linejoin:round;stroke-miterlimit:2;">
    <g>
        <path d="M203.417,29.7C198.56,22.602 192.49,16.158 185.205,10.367C183.15,8.873 182.216,7.939 182.403,7.565C182.59,7.192 183.804,7.005 186.045,7.005C191.275,7.005 196.786,7.845 202.576,9.526C209.114,11.394 213.784,14.009 216.586,17.372C219.388,20.734 220.508,24.003 219.948,27.178C219.388,30.541 217.893,33.062 215.465,34.743C211.542,37.545 207.526,35.864 203.417,29.7ZM117.119,191.649C122.723,191.089 128.793,191.275 135.331,192.209C142.803,193.33 148.5,195.198 152.423,197.813C156.532,200.802 158.68,204.258 158.867,208.18C159.054,211.916 157.933,214.905 155.505,217.146C151.769,220.882 147.006,219.575 141.215,213.224C135.425,205.565 127.019,199.121 115.998,193.891C114.877,193.33 114.41,192.863 114.597,192.49C114.784,192.116 115.625,191.836 117.119,191.649ZM209.581,103.67L171.475,103.67C171.662,110.581 171.756,117.399 171.756,124.124L209.301,124.124C209.488,119.267 209.581,112.449 209.581,103.67ZM209.581,96.945C209.581,92.649 209.394,87.325 209.021,80.975C209.021,78.733 207.807,77.612 205.378,77.612L171.195,77.612L171.195,96.945L209.581,96.945ZM209.301,130.848L172.036,130.848C172.036,134.958 172.223,140.935 172.596,148.78C172.596,151.956 171.382,154.384 168.954,156.065C166.712,157.746 164.284,158.4 161.669,158.026C158.12,157.653 156.252,154.851 156.065,149.621C156.439,141.402 156.625,135.144 156.625,130.848L119.641,130.848C119.827,138.32 119.921,145.792 119.921,153.263C119.921,155.878 118.8,157.933 116.558,159.427C114.504,160.735 112.169,161.389 109.554,161.389C104.884,161.575 102.549,159.147 102.549,154.104C103.857,142.336 104.51,121.135 104.51,90.501C104.51,81.908 103.483,72.195 101.428,61.361C100.681,58.746 101.428,58.186 103.67,59.68C109.834,61.735 117.025,65.377 125.244,70.608L157.466,70.608L157.466,49.593L153.543,49.593C128.326,49.593 109.18,50.434 96.105,52.115C94.61,52.302 92.275,50.341 89.1,46.231C85.925,42.122 84.337,39.32 84.337,37.825C112.169,40.814 135.425,42.308 154.104,42.308L157.186,42.308L157.186,37.265C156.625,21.388 155.692,10.927 154.384,5.884C154.01,4.763 154.01,4.109 154.384,3.923C154.571,3.549 155.318,3.456 156.625,3.642C160.548,4.016 167.74,5.884 178.2,9.246C181.189,10.367 182.776,11.675 182.963,13.169C183.337,15.224 182.029,17.092 179.041,18.773C176.425,19.893 174.651,20.827 173.717,21.575C172.783,22.322 172.223,24.843 172.036,29.14C171.849,33.623 171.662,38.012 171.475,42.308L214.064,42.308C215.745,42.308 217.053,41.561 217.987,40.067C222.657,32.782 226.486,27.925 229.475,25.497C231.156,24.563 232.557,24.376 233.677,24.937C242.083,29.42 249.181,35.677 254.972,43.709C255.719,44.83 255.812,45.951 255.252,47.072C254.505,48.753 252.73,49.593 249.928,49.593L171.195,49.593L171.195,70.608L203.137,70.608C204.818,70.608 206.125,69.86 207.059,68.366C209.114,65.004 210.982,62.669 212.663,61.361C214.158,60.241 215.745,60.147 217.426,61.081C223.217,63.696 228.914,67.619 234.518,72.849C236.386,75.277 236.573,77.425 235.078,79.293C234.518,80.041 232.743,81.348 229.755,83.216C227.887,84.337 226.673,85.551 226.112,86.858C225.552,88.166 225.178,90.408 224.992,93.583C224.618,112.636 225.085,130.101 226.392,145.978C226.579,149.341 225.458,151.862 223.03,153.543C220.602,155.225 217.987,155.785 215.185,155.225C211.449,154.851 209.394,152.423 209.021,147.94C209.208,142.336 209.301,136.639 209.301,130.848ZM201.456,175.958L220.508,175.958C222.19,175.958 223.497,175.211 224.431,173.717C229.475,165.872 232.93,161.108 234.798,159.427C235.545,158.68 236.759,158.493 238.441,158.867C246.099,162.603 252.824,168.58 258.614,176.799C259.548,178.293 259.735,179.601 259.175,180.722C258.427,182.216 256.373,182.963 253.01,182.963L201.175,182.963C200.802,190.622 200.895,199.214 201.456,208.741C202.203,219.201 202.576,224.992 202.576,226.112C202.576,232.276 200.428,237.693 196.132,242.363C190.902,247.967 183.71,251.049 174.558,251.609C171.756,251.609 170.075,250.489 169.514,248.247C168.393,246.192 162.416,242.27 151.582,236.479C145.231,233.304 141.869,231.156 141.495,230.035C141.682,229.661 143.176,229.755 145.978,230.315C161.295,233.117 171.195,234.331 175.678,233.958C182.59,233.397 186.232,229.661 186.606,222.75C187.166,213.971 187.166,200.708 186.606,182.963L149.621,182.963C124.964,182.963 102.736,183.804 82.936,185.485C80.694,185.672 77.892,183.897 74.53,180.161C71.355,176.612 69.767,173.904 69.767,172.036C97.412,174.651 124.31,175.958 150.461,175.958L186.606,175.958C185.672,165.685 184.831,159.054 184.084,156.065C183.524,154.944 183.617,154.197 184.364,153.824C184.925,153.45 185.765,153.45 186.886,153.824C194.358,154.944 200.708,156.252 205.939,157.746C208.927,158.68 210.515,159.894 210.702,161.389C210.702,163.07 208.46,164.844 203.977,166.712C202.483,167.459 201.642,170.542 201.456,175.958ZM157.466,77.612L126.645,77.612C125.711,78.546 124.871,79.293 124.124,79.854C122.256,80.975 121.042,82.002 120.481,82.936C119.921,83.683 119.641,86.298 119.641,90.781L119.641,96.945L157.466,96.945L157.466,77.612ZM157.186,103.67L119.641,103.67L119.641,124.124L156.906,124.124C157.092,119.641 157.186,112.823 157.186,103.67ZM58.559,83.776L63.883,83.776C65.191,83.776 66.311,83.029 67.245,81.535C70.234,75.744 73.129,71.168 75.931,67.806C77.239,66.872 78.453,66.685 79.574,67.245C87.232,71.168 93.396,76.958 98.066,84.617C98.813,86.298 99,87.606 98.626,88.54C98.066,89.847 96.385,90.501 93.583,90.501L58.279,90.501C58.279,143.363 58.933,193.61 60.241,241.242C60.241,244.978 58.653,247.78 55.477,249.648C52.489,251.516 49.313,252.17 45.951,251.609C41.842,251.049 39.787,247.967 39.787,242.363C41.655,200.335 42.589,149.808 42.589,90.781C37.545,90.781 27.272,91.528 11.768,93.023C9.713,93.209 7.192,91.435 4.203,87.699C1.401,84.15 0,81.535 0,79.854C16.811,81.908 31.008,83.123 42.589,83.496C42.402,71.355 42.215,59.213 42.028,47.072C42.028,27.272 41.281,13.449 39.787,5.604C39.413,4.483 39.413,3.736 39.787,3.362C40.16,2.989 40.908,2.989 42.028,3.362C54.73,5.417 62.856,7.192 66.405,8.686C69.58,9.993 71.168,11.581 71.168,13.449C71.168,15.504 69.58,17.372 66.405,19.053C63.416,20.547 61.735,21.481 61.361,21.855C60.241,22.975 59.587,25.497 59.4,29.42C58.84,40.067 58.559,58.186 58.559,83.776Z" style="fill-rule:nonzero;"/>
        <path d="M453.625,225.272C453.999,206.779 453.906,193.704 453.345,186.045C453.345,185.298 453.158,184.738 452.785,184.364C452.225,183.617 451.384,183.243 450.263,183.243L374.052,183.243C373.492,183.617 372.931,183.991 372.371,184.364C370.69,185.485 369.662,186.512 369.289,187.446C369.102,188.007 368.915,190.155 368.728,193.891C368.355,201.923 368.355,212.383 368.728,225.272L453.625,225.272ZM453.345,232.557L368.728,232.557C368.915,234.798 369.008,238.254 369.008,242.924C368.822,245.725 367.421,247.874 364.806,249.368C361.817,251.049 358.735,251.609 355.559,251.049C351.824,250.675 350.049,248.247 350.236,243.764C351.543,234.238 352.197,216.586 352.197,190.808C352.197,183.15 351.637,176.425 350.516,170.635C331.09,178.667 311.757,184.177 292.517,187.166C283.925,188.474 279.535,188.66 279.348,187.726C278.975,186.606 282.617,185.018 290.275,182.963C329.875,172.69 366.674,153.637 400.67,125.805C389.462,114.597 381.243,103.016 376.013,91.061C347.994,122.069 320.162,143.737 292.517,156.065C288.781,157.559 286.633,157.933 286.073,157.186C285.512,156.439 287.007,154.944 290.556,152.703C302.884,145.418 317.547,132.996 334.545,115.438C352.104,97.319 366.767,79.107 378.535,60.801C379.842,58.746 381.43,54.824 383.298,49.033C383.485,48.099 383.672,47.445 383.858,47.072C384.232,46.885 385.073,47.072 386.38,47.632C396.28,50.994 403.565,54.637 408.235,58.559C410.29,60.427 410.757,62.108 409.636,63.603C408.515,65.097 405.807,65.658 401.51,65.284C398.148,64.537 395.72,65.658 394.225,68.646C390.863,73.129 388.248,76.492 386.38,78.733L440.737,78.733C442.605,78.733 444.192,78.173 445.5,77.052C447.555,75.371 449.516,73.596 451.384,71.728C452.318,70.981 453.999,70.981 456.427,71.728C462.031,74.343 467.355,78.079 472.398,82.936C474.079,84.991 474.453,86.765 473.519,88.259C472.585,89.754 470.343,90.968 466.794,91.902C462.125,92.462 458.295,94.33 455.307,97.506C444.473,109.087 433.639,119.267 422.805,128.046C457.922,148.967 498.082,159.521 543.286,159.708C545.154,159.708 546.088,159.894 546.088,160.268C545.901,161.202 544.313,162.136 541.325,163.07C539.643,163.817 537.962,164.471 536.281,165.031C523.206,170.261 515.827,173.997 514.146,176.239C513.212,177.733 511.158,178.293 507.982,177.92C493.412,175.865 477.722,171.289 460.91,164.191C442.418,156.345 426.26,146.912 412.438,135.892C396,147.846 378.068,158.307 358.642,167.273C366.3,170.448 371.717,173.157 374.892,175.398L375.173,175.678L447.742,175.678C449.236,175.678 450.45,174.931 451.384,173.437C453.625,170.261 455.213,168.393 456.147,167.833C457.642,166.712 459.229,166.619 460.91,167.553C470.81,172.036 476.788,175.585 478.842,178.2C480.524,180.442 480.804,182.309 479.683,183.804C479.123,184.551 477.628,185.765 475.2,187.446C471.091,189.688 469.409,193.237 470.157,198.093C469.97,204.258 470.53,218.36 471.838,240.402C471.838,243.764 470.53,246.286 467.915,247.967C465.3,249.648 462.498,250.208 459.509,249.648C455.774,249.275 453.719,246.846 453.345,242.363L453.345,232.557ZM419.442,38.946L488.929,38.946C490.237,38.946 491.638,38.199 493.132,36.705C495.187,34.276 497.428,32.222 499.857,30.541C500.977,29.793 502.192,29.607 503.499,29.98C512.652,33.716 519.75,39.32 524.793,46.792C526.661,49.78 526.942,52.208 525.634,54.076C524.14,56.318 520.777,57.532 515.547,57.719C511.251,57.906 506.394,59.307 500.977,61.922C498.549,63.042 493.973,65.564 487.248,69.487C482.578,72.475 479.309,74.343 477.442,75.091C476.134,75.838 475.293,76.118 474.92,75.931C474.359,75.744 474.546,74.904 475.48,73.409C481.084,65.004 485.754,56.785 489.49,48.753C489.863,47.819 489.957,47.072 489.77,46.511C489.583,46.138 489.116,45.951 488.369,45.951L333.144,45.951C331.463,58.466 326.98,68.179 319.695,75.091C314.652,79.76 309.889,82.095 305.406,82.095C301.109,82.095 298.027,80.694 296.159,77.892C292.61,73.223 294.478,67.525 301.763,60.801C310.542,53.703 316.707,47.352 320.256,41.748C323.805,36.331 326.326,29.233 327.821,20.454C328.194,18.586 328.755,17.652 329.502,17.652C330.062,17.652 330.529,18.306 330.903,19.613C333.144,25.777 334.078,32.222 333.705,38.946L402.351,38.946L402.351,33.903C401.977,19.333 400.95,8.779 399.269,2.242C398.895,0.747 398.802,0 398.989,0C399.362,0 400.296,0.093 401.791,0.28C411.691,1.401 420.096,3.175 427.008,5.604C430.93,7.098 432.705,8.779 432.331,10.647C431.958,12.515 430.183,14.29 427.008,15.971C424.019,17.652 422.244,18.959 421.684,19.893C421.124,20.827 420.657,23.256 420.283,27.178C420.096,31.101 419.816,35.024 419.442,38.946ZM409.075,118.52C418.789,110.114 428.689,100.308 438.775,89.1C440.643,86.858 440.176,85.738 437.375,85.738L380.776,85.738C380.59,86.111 380.309,86.392 379.936,86.578C387.221,98.72 396.934,109.367 409.075,118.52Z" style="fill-rule:nonzero;"/>
        <path d="M654.241,213.784C654.241,222.937 651.065,230.689 644.714,237.04C638.363,243.391 630.611,246.566 621.458,246.566C612.306,246.566 604.554,243.391 598.203,237.04C591.852,230.689 588.676,222.937 588.676,213.784C588.676,204.631 591.852,196.879 598.203,190.528C604.554,184.177 612.306,181.002 621.458,181.002C630.611,181.002 638.363,184.177 644.714,190.528C651.065,196.879 654.241,204.631 654.241,213.784ZM643.874,213.784C643.874,207.62 641.725,202.39 637.429,198.093C632.946,193.61 627.623,191.369 621.458,191.369C615.481,191.369 610.251,193.61 605.768,198.093C601.472,202.39 599.324,207.62 599.324,213.784C599.324,220.135 601.472,225.458 605.768,229.755C610.064,234.051 615.294,236.199 621.458,236.199C627.809,236.199 633.133,234.051 637.429,229.755C641.725,225.458 643.874,220.135 643.874,213.784Z" style="fill-rule:nonzero;"/>
    </g>
</svg>
